<svg xmlns="http://www.w3.org/2000/svg" width="670" height="240" viewBox="0 0 670 240" role="img" aria-labelledby="title desc"><title id="title">Mueve exactamente un cerillo</title><desc id="desc">Igualdad inicial hecha con cerillos: 6 + 4 = 4. Los dígitos tienen el patrón de siete segmentos.</desc><rect width="670" height="240" fill="#ffffff"/><line x1="69" y1="55" x2="121" y2="55" stroke="#ad6736" stroke-width="8" stroke-linecap="round" /><line x1="125" y1="115" x2="125" y2="175" stroke="#ad6736" stroke-width="8" stroke-linecap="round" /><line x1="69" y1="175" x2="121" y2="175" stroke="#ad6736" stroke-width="8" stroke-linecap="round" /><line x1="65" y1="115" x2="65" y2="175" stroke="#ad6736" stroke-width="8" stroke-linecap="round" /><line x1="65" y1="55" x2="65" y2="115" stroke="#ad6736" stroke-width="8" stroke-linecap="round" /><line x1="69" y1="115" x2="121" y2="115" stroke="#ad6736" stroke-width="8" stroke-linecap="round" /><line x1="190" y1="115" x2="250" y2="115" stroke="#ad6736" stroke-width="8" stroke-linecap="round" /><line x1="220" y1="85" x2="220" y2="145" stroke="#ad6736" stroke-width="8" stroke-linecap="round" /><line x1="365" y1="55" x2="365" y2="115" stroke="#ad6736" stroke-width="8" stroke-linecap="round" /><line x1="365" y1="115" x2="365" y2="175" stroke="#ad6736" stroke-width="8" stroke-linecap="round" /><line x1="305" y1="55" x2="305" y2="115" stroke="#ad6736" stroke-width="8" stroke-linecap="round" /><line x1="309" y1="115" x2="361" y2="115" stroke="#ad6736" stroke-width="8" stroke-linecap="round" /><line x1="420" y1="100" x2="480" y2="100" stroke="#ad6736" stroke-width="8" stroke-linecap="round" /><line x1="420" y1="130" x2="480" y2="130" stroke="#ad6736" stroke-width="8" stroke-linecap="round" /><line x1="600" y1="55" x2="600" y2="115" stroke="#ad6736" stroke-width="8" stroke-linecap="round" /><line x1="600" y1="115" x2="600" y2="175" stroke="#ad6736" stroke-width="8" stroke-linecap="round" /><line x1="540" y1="55" x2="540" y2="115" stroke="#ad6736" stroke-width="8" stroke-linecap="round" /><line x1="544" y1="115" x2="596" y2="115" stroke="#ad6736" stroke-width="8" stroke-linecap="round" /></svg>